<svg xmlns="http://www.w3.org/2000/svg" width="24" height="24" viewBox="0 0 24 24" fill="#FF69B4">
  <path d="M23.642 5.43a.364.364 0 01.014.1v5.149c0 .135-.073.26-.189.326l-4.323 2.49v4.934a.378.378 0 01-.188.326L9.93 23.949a.316.316 0 01-.066.02c-.012.003-.02.006-.032.006a.33.33 0 01-.096-.016.364.364 0 01-.189-.326V18.49L5.89 16.444a.367.367 0 01-.188-.326V10.969c0-.136.073-.26.188-.326l4.323-2.49V3.218c0-.135.073-.26.188-.326L19.429.025a.364.364 0 01.188 0l9.025 2.867a.363.363 0 01.189.326z"/>
</svg>
