<svg xmlns="http://www.w3.org/2000/svg" viewBox="0 0 24 24" fill="#FF69B4">
  <path d="M7.2 5c2.4 0 3.8 1.3 3.8 3.4 0 2.4-1.8 3.6-4 3.6H5.8V15H3.6V5h3.6zM5.8 7v3.2H7c1.2 0 1.8-.6 1.8-1.6S8.2 7 7 7H5.8z"/>
  <path d="M20.4 5c2.4 0 3.8 1.3 3.8 3.4 0 2.4-1.8 3.6-4 3.6h-1.2V15h-2.2V5h3.6zm-1.8 2v3.2h1.2c1.2 0 1.8-.6 1.8-1.6S20 7 18.8 7h-1.2z"/>
  <path d="M13.6 9.2c0-2.8 1.8-4.7 4.2-4.7s4.2 1.9 4.2 4.7c0 2.8-1.8 4.8-4.2 4.8s-4.2-2-4.2-4.8zm6.2 0c0-1.4-.8-2.5-2-2.5s-2 1.1-2 2.5.8 2.5 2 2.5 2-1.1 2-2.5z"/>
</svg>
